# MagicaVoxel @ Ephtracy

# group
o 

# material
mtllib VoxelLabrador.mtl
usemtl palette

# normals
vn -1 0 0
vn 1 0 0
vn 0 0 1
vn 0 0 -1
vn 0 -1 0
vn 0 1 0

# texcoords
vt 0.0410156 0.5
vt 0.0683594 0.5
vt 0.537109 0.5
vt 0.701172 0.5
vt 0.958984 0.5

# verts
v -0.5 0 0.1
v -0.5 0 -0.1
v -0.5 0.2 0.1
v -0.5 0.2 -0.1
v -0.3 0 0.4
v -0.3 0 0.3
v -0.3 0 0.1
v -0.3 0 -0.1
v -0.3 0 -0.3
v -0.3 0 -0.4
v -0.3 0.1 0.1
v -0.3 0.1 -0.1
v -0.3 0.3 0.4
v -0.3 0.3 0.3
v -0.3 0.3 -0.3
v -0.3 0.3 -0.4
v -0.3 0.5 0.3
v -0.3 0.5 -0.3
v -0.2 0.5 0.2
v -0.2 0.5 -0.2
v -0.2 0.6 0.2
v -0.2 0.6 -0.2
v -0.2 1 0.2
v -0.2 1 -0.2
v -0.1 0.7 0.3
v -0.1 0.7 0.2
v -0.1 0.7 -0.2
v -0.1 0.7 -0.3
v -0.1 0.8 0.4
v -0.1 0.8 0.3
v -0.1 0.8 -0.3
v -0.1 0.8 -0.4
v -0.1 1 0.4
v -0.1 1 0.2
v -0.1 1 -0.2
v -0.1 1 -0.4
v -0.4 0.1 0.1
v -0.4 0.1 -0.1
v -0.4 0.2 0.1
v -0.4 0.2 -0.1
v -0.1 0.2 0.4
v -0.1 0.2 0.3
v -0.1 0.2 -0.3
v -0.1 0.2 -0.4
v -0.1 0.3 0.4
v -0.1 0.3 0.3
v -0.1 0.3 -0.3
v -0.1 0.3 -0.4
v 0 0.1 0.4
v 0 0.1 0.3
v 0 0.1 -0.3
v 0 0.1 -0.4
v 0 0.2 0.4
v 0 0.2 0.3
v 0 0.2 -0.3
v 0 0.2 -0.4
v 0 0.7 0.3
v 0 0.7 0.2
v 0 0.7 -0.2
v 0 0.7 -0.3
v 0 0.8 0.4
v 0 0.8 0.3
v 0 0.8 -0.3
v 0 0.8 -0.4
v 0 1 0.4
v 0 1 0.2
v 0 1 -0.2
v 0 1 -0.4
v 0.1 0 0.4
v 0.1 0 0.3
v 0.1 0 -0.3
v 0.1 0 -0.4
v 0.1 0.1 0.4
v 0.1 0.1 0.3
v 0.1 0.1 -0.3
v 0.1 0.1 -0.4
v 0.2 0 0.1
v 0.2 0 -0.1
v 0.2 0.3 0.3
v 0.2 0.3 0.1
v 0.2 0.3 -0.1
v 0.2 0.3 -0.3
v 0.2 0.5 0.3
v 0.2 0.5 0.2
v 0.2 0.5 -0.2
v 0.2 0.5 -0.3
v 0.2 0.6 0.1
v 0.2 0.6 -0.1
v 0.2 0.7 0.2
v 0.2 0.7 0.1
v 0.2 0.7 -0.1
v 0.2 0.7 -0.2
v 0.2 0.8 0.2
v 0.2 0.8 0.1
v 0.2 0.8 -0.1
v 0.2 0.8 -0.2
v 0.2 0.9 0.2
v 0.2 0.9 0.1
v 0.2 0.9 -0.1
v 0.2 0.9 -0.2
v 0.2 1 0.2
v 0.2 1 -0.2
v 0.3 0.1 0.3
v 0.3 0.1 0.1
v 0.3 0.1 -0.1
v 0.3 0.1 -0.3
v 0.3 0.3 0.3
v 0.3 0.3 0.1
v 0.3 0.3 -0.1
v 0.3 0.3 -0.3
v 0.4 0 0.3
v 0.4 0 0.1
v 0.4 0 -0.1
v 0.4 0 -0.3
v 0.4 0.1 0.3
v 0.4 0.1 0.1
v 0.4 0.1 -0.1
v 0.4 0.1 -0.3
v 0.4 0.6 0.1
v 0.4 0.6 -0.1
v 0.4 0.7 0.1
v 0.4 0.7 -0.1
v 0.4 0.8 0.1
v 0.4 0.8 -0.1
v -0.3 0 0.4
v -0.3 0.3 0.4
v -0.1 0.2 0.4
v -0.1 0.3 0.4
v -0.1 0.8 0.4
v -0.1 1 0.4
v 0 0 0.4
v 0 0.1 0.4
v 0 0.2 0.4
v 0 0.8 0.4
v 0 1 0.4
v 0.1 0 0.4
v 0.1 0.1 0.4
v -0.3 0.3 0.3
v -0.3 0.5 0.3
v -0.2 0.3 0.3
v -0.2 0.4 0.3
v -0.1 0.2 0.3
v -0.1 0.3 0.3
v -0.1 0.4 0.3
v -0.1 0.5 0.3
v -0.1 0.7 0.3
v -0.1 0.8 0.3
v 0 0.1 0.3
v 0 0.2 0.3
v 0 0.7 0.3
v 0 0.8 0.3
v 0.1 0 0.3
v 0.1 0.1 0.3
v 0.2 0.3 0.3
v 0.2 0.5 0.3
v 0.3 0 0.3
v 0.3 0.1 0.3
v 0.3 0.3 0.3
v 0.4 0 0.3
v 0.4 0.1 0.3
v -0.2 0.5 0.2
v -0.2 0.6 0.2
v -0.2 1 0.2
v -0.1 0.5 0.2
v -0.1 0.6 0.2
v -0.1 0.7 0.2
v -0.1 1 0.2
v 0 0.7 0.2
v 0 1 0.2
v 0.1 0.7 0.2
v 0.1 0.8 0.2
v 0.1 0.9 0.2
v 0.2 0.5 0.2
v 0.2 0.7 0.2
v 0.2 0.8 0.2
v 0.2 0.9 0.2
v 0.2 1 0.2
v -0.5 0 0.1
v -0.5 0.2 0.1
v -0.4 0.1 0.1
v -0.4 0.2 0.1
v -0.3 0 0.1
v -0.3 0.1 0.1
v 0.2 0.6 0.1
v 0.2 0.7 0.1
v 0.2 0.8 0.1
v 0.3 0.7 0.1
v 0.3 0.8 0.1
v 0.4 0.6 0.1
v 0.4 0.7 0.1
v 0.4 0.8 0.1
v 0.2 0 -0.1
v 0.2 0.3 -0.1
v 0.3 0 -0.1
v 0.3 0.1 -0.1
v 0.3 0.3 -0.1
v 0.4 0 -0.1
v 0.4 0.1 -0.1
v 0.2 0 0.1
v 0.2 0.3 0.1
v 0.3 0 0.1
v 0.3 0.1 0.1
v 0.3 0.3 0.1
v 0.4 0 0.1
v 0.4 0.1 0.1
v -0.5 0 -0.1
v -0.5 0.2 -0.1
v -0.4 0.1 -0.1
v -0.4 0.2 -0.1
v -0.3 0 -0.1
v -0.3 0.1 -0.1
v 0.2 0.6 -0.1
v 0.2 0.7 -0.1
v 0.2 0.8 -0.1
v 0.3 0.7 -0.1
v 0.3 0.8 -0.1
v 0.4 0.6 -0.1
v 0.4 0.7 -0.1
v 0.4 0.8 -0.1
v -0.2 0.5 -0.2
v -0.2 0.6 -0.2
v -0.2 1 -0.2
v -0.1 0.5 -0.2
v -0.1 0.6 -0.2
v -0.1 0.7 -0.2
v -0.1 1 -0.2
v 0 0.7 -0.2
v 0 1 -0.2
v 0.1 0.7 -0.2
v 0.1 0.8 -0.2
v 0.1 0.9 -0.2
v 0.2 0.5 -0.2
v 0.2 0.7 -0.2
v 0.2 0.8 -0.2
v 0.2 0.9 -0.2
v 0.2 1 -0.2
v -0.3 0.3 -0.3
v -0.3 0.5 -0.3
v -0.2 0.3 -0.3
v -0.2 0.4 -0.3
v -0.1 0.2 -0.3
v -0.1 0.3 -0.3
v -0.1 0.4 -0.3
v -0.1 0.5 -0.3
v -0.1 0.7 -0.3
v -0.1 0.8 -0.3
v 0 0.1 -0.3
v 0 0.2 -0.3
v 0 0.7 -0.3
v 0 0.8 -0.3
v 0.1 0 -0.3
v 0.1 0.1 -0.3
v 0.2 0.3 -0.3
v 0.2 0.5 -0.3
v 0.3 0 -0.3
v 0.3 0.1 -0.3
v 0.3 0.3 -0.3
v 0.4 0 -0.3
v 0.4 0.1 -0.3
v -0.3 0 -0.4
v -0.3 0.3 -0.4
v -0.1 0.2 -0.4
v -0.1 0.3 -0.4
v -0.1 0.8 -0.4
v -0.1 1 -0.4
v 0 0 -0.4
v 0 0.1 -0.4
v 0 0.2 -0.4
v 0 0.8 -0.4
v 0 1 -0.4
v 0.1 0 -0.4
v 0.1 0.1 -0.4
v -0.3 0 0.4
v 0 0 0.4
v 0.1 0 0.4
v -0.3 0 0.3
v -0.2 0 0.3
v 0 0 0.3
v 0.1 0 0.3
v 0.3 0 0.3
v 0.4 0 0.3
v -0.5 0 0.1
v -0.3 0 0.1
v 0.2 0 0.1
v 0.3 0 0.1
v 0.4 0 0.1
v -0.5 0 -0.1
v -0.3 0 -0.1
v 0.2 0 -0.1
v 0.3 0 -0.1
v 0.4 0 -0.1
v -0.3 0 -0.3
v -0.2 0 -0.3
v 0 0 -0.3
v 0.1 0 -0.3
v 0.3 0 -0.3
v 0.4 0 -0.3
v -0.3 0 -0.4
v 0 0 -0.4
v 0.1 0 -0.4
v 0.2 0.6 0.1
v 0.4 0.6 0.1
v 0.2 0.6 -0.1
v 0.4 0.6 -0.1
v -0.1 0.7 0.3
v 0 0.7 0.3
v -0.1 0.7 0.2
v 0 0.7 0.2
v -0.1 0.7 -0.2
v 0 0.7 -0.2
v -0.1 0.7 -0.3
v 0 0.7 -0.3
v -0.1 0.8 0.4
v 0 0.8 0.4
v -0.1 0.8 0.3
v 0 0.8 0.3
v -0.1 0.8 -0.3
v 0 0.8 -0.3
v -0.1 0.8 -0.4
v 0 0.8 -0.4
v 0 0.1 0.4
v 0.1 0.1 0.4
v 0 0.1 0.3
v 0.1 0.1 0.3
v 0.3 0.1 0.3
v 0.4 0.1 0.3
v -0.4 0.1 0.1
v -0.3 0.1 0.1
v 0.3 0.1 0.1
v 0.4 0.1 0.1
v -0.4 0.1 -0.1
v -0.3 0.1 -0.1
v 0.3 0.1 -0.1
v 0.4 0.1 -0.1
v 0 0.1 -0.3
v 0.1 0.1 -0.3
v 0.3 0.1 -0.3
v 0.4 0.1 -0.3
v 0 0.1 -0.4
v 0.1 0.1 -0.4
v -0.1 0.2 0.4
v 0 0.2 0.4
v -0.1 0.2 0.3
v 0 0.2 0.3
v -0.5 0.2 0.1
v -0.4 0.2 0.1
v -0.5 0.2 -0.1
v -0.4 0.2 -0.1
v -0.1 0.2 -0.3
v 0 0.2 -0.3
v -0.1 0.2 -0.4
v 0 0.2 -0.4
v -0.3 0.3 0.4
v -0.1 0.3 0.4
v -0.3 0.3 0.3
v -0.2 0.3 0.3
v -0.1 0.3 0.3
v 0.2 0.3 0.3
v 0.3 0.3 0.3
v 0.2 0.3 0.1
v 0.3 0.3 0.1
v 0.2 0.3 -0.1
v 0.3 0.3 -0.1
v -0.3 0.3 -0.3
v -0.2 0.3 -0.3
v -0.1 0.3 -0.3
v 0.2 0.3 -0.3
v 0.3 0.3 -0.3
v -0.3 0.3 -0.4
v -0.1 0.3 -0.4
v -0.3 0.5 0.3
v -0.1 0.5 0.3
v 0.2 0.5 0.3
v -0.2 0.5 0.2
v -0.1 0.5 0.2
v 0.2 0.5 0.2
v -0.2 0.5 -0.2
v -0.1 0.5 -0.2
v 0.2 0.5 -0.2
v -0.3 0.5 -0.3
v -0.1 0.5 -0.3
v 0.2 0.5 -0.3
v 0.2 0.8 0.1
v 0.3 0.8 0.1
v 0.4 0.8 0.1
v 0.2 0.8 -0.1
v 0.3 0.8 -0.1
v 0.4 0.8 -0.1
v -0.1 1 0.4
v 0 1 0.4
v -0.2 1 0.2
v -0.1 1 0.2
v 0 1 0.2
v 0.2 1 0.2
v -0.2 1 -0.2
v -0.1 1 -0.2
v 0 1 -0.2
v 0.2 1 -0.2
v -0.1 1 -0.4
v 0 1 -0.4

# faces
f 3/1/1 2/1/1 1/1/1
f 4/1/1 2/1/1 3/1/1
f 11/2/1 7/2/1 6/2/1
f 12/2/1 9/2/1 8/2/1
f 13/1/1 6/1/1 5/1/1
f 14/2/1 12/2/1 11/2/1
f 14/1/1 6/1/1 13/1/1
f 14/2/1 11/2/1 6/2/1
f 15/1/1 10/1/1 9/1/1
f 15/2/1 12/2/1 14/2/1
f 15/2/1 9/2/1 12/2/1
f 16/1/1 10/1/1 15/1/1
f 17/2/1 15/2/1 14/2/1
f 18/2/1 15/2/1 17/2/1
f 21/2/1 20/2/1 19/2/1
f 22/2/1 20/2/1 21/2/1
f 23/1/1 22/1/1 21/1/1
f 24/1/1 22/1/1 23/1/1
f 30/2/1 26/2/1 25/2/1
f 31/2/1 28/2/1 27/2/1
f 33/2/1 30/2/1 29/2/1
f 34/2/1 26/2/1 30/2/1
f 34/2/1 30/2/1 33/2/1
f 35/2/1 32/2/1 31/2/1
f 35/2/1 31/2/1 27/2/1
f 36/2/1 32/2/1 35/2/1
f 37/1/2 38/1/2 39/1/2
f 39/1/2 38/1/2 40/1/2
f 41/1/2 42/1/2 45/1/2
f 45/1/2 42/1/2 46/1/2
f 43/1/2 44/1/2 47/1/2
f 47/1/2 44/1/2 48/1/2
f 49/1/2 50/1/2 53/1/2
f 53/1/2 50/1/2 54/1/2
f 51/1/2 52/1/2 55/1/2
f 55/1/2 52/1/2 56/1/2
f 57/2/2 58/2/2 62/2/2
f 59/2/2 60/2/2 63/2/2
f 61/2/2 62/2/2 65/2/2
f 62/2/2 58/2/2 66/2/2
f 65/2/2 62/2/2 66/2/2
f 63/2/2 64/2/2 67/2/2
f 59/2/2 63/2/2 67/2/2
f 67/2/2 64/2/2 68/2/2
f 69/2/2 70/2/2 73/2/2
f 73/2/2 70/2/2 74/2/2
f 71/2/2 72/2/2 75/2/2
f 75/2/2 72/2/2 76/2/2
f 77/1/2 78/1/2 80/1/2
f 80/1/2 78/1/2 81/1/2
f 79/1/2 80/1/2 83/1/2
f 81/1/2 82/1/2 83/1/2
f 80/1/2 81/1/2 83/1/2
f 83/1/2 82/1/2 84/1/2
f 84/1/2 82/1/2 85/1/2
f 85/1/2 82/1/2 86/1/2
f 84/1/2 85/1/2 87/1/2
f 87/1/2 85/1/2 88/1/2
f 84/1/2 87/1/2 89/1/2
f 89/1/2 87/1/2 90/1/2
f 88/1/2 85/1/2 91/1/2
f 91/1/2 85/1/2 92/1/2
f 89/4/2 90/4/2 93/4/2
f 93/4/2 90/4/2 94/4/2
f 91/4/2 92/4/2 95/4/2
f 95/4/2 92/4/2 96/4/2
f 93/5/2 94/5/2 97/5/2
f 94/2/2 95/2/2 98/2/2
f 97/5/2 94/5/2 98/5/2
f 95/5/2 96/5/2 99/5/2
f 98/2/2 95/2/2 99/2/2
f 99/5/2 96/5/2 100/5/2
f 97/1/2 98/1/2 101/1/2
f 98/1/2 99/1/2 101/1/2
f 99/1/2 100/1/2 101/1/2
f 101/1/2 100/1/2 102/1/2
f 103/1/2 104/1/2 107/1/2
f 107/1/2 104/1/2 108/1/2
f 105/1/2 106/1/2 109/1/2
f 109/1/2 106/1/2 110/1/2
f 111/2/2 112/2/2 115/2/2
f 115/2/2 112/2/2 116/2/2
f 113/2/2 114/2/2 117/2/2
f 117/2/2 114/2/2 118/2/2
f 119/1/2 120/1/2 121/1/2
f 121/1/2 120/1/2 122/1/2
f 121/3/2 122/3/2 123/3/2
f 123/3/2 122/3/2 124/3/2
f 127/1/3 126/1/3 125/1/3
f 128/1/3 126/1/3 127/1/3
f 131/1/3 127/1/3 125/1/3
f 132/1/3 127/1/3 131/1/3
f 133/1/3 127/1/3 132/1/3
f 134/2/3 130/2/3 129/2/3
f 135/2/3 130/2/3 134/2/3
f 136/2/3 132/2/3 131/2/3
f 137/2/3 132/2/3 136/2/3
f 140/2/3 139/2/3 138/2/3
f 141/2/3 139/2/3 140/2/3
f 143/1/3 141/1/3 140/1/3
f 144/2/3 139/2/3 141/2/3
f 144/1/3 141/1/3 143/1/3
f 145/2/3 139/2/3 144/2/3
f 149/1/3 143/1/3 142/1/3
f 149/1/3 144/1/3 143/1/3
f 149/1/3 145/1/3 144/1/3
f 150/2/3 147/2/3 146/2/3
f 151/2/3 147/2/3 150/2/3
f 153/1/3 149/1/3 148/1/3
f 154/1/3 145/1/3 149/1/3
f 154/1/3 153/1/3 152/1/3
f 154/1/3 149/1/3 153/1/3
f 155/1/3 145/1/3 154/1/3
f 156/1/3 154/1/3 152/1/3
f 157/1/3 154/1/3 156/1/3
f 158/1/3 154/1/3 157/1/3
f 159/2/3 157/2/3 156/2/3
f 160/2/3 157/2/3 159/2/3
f 164/2/3 162/2/3 161/2/3
f 165/1/3 163/1/3 162/1/3
f 165/2/3 162/2/3 164/2/3
f 166/1/3 163/1/3 165/1/3
f 167/1/3 163/1/3 166/1/3
f 168/1/3 165/1/3 164/1/3
f 168/1/3 166/1/3 165/1/3
f 170/1/3 168/1/3 164/1/3
f 170/1/3 169/1/3 168/1/3
f 171/1/3 169/1/3 170/1/3
f 172/1/3 169/1/3 171/1/3
f 173/1/3 170/1/3 164/1/3
f 174/4/3 171/4/3 170/4/3
f 174/1/3 170/1/3 173/1/3
f 175/5/3 172/5/3 171/5/3
f 175/4/3 171/4/3 174/4/3
f 176/1/3 169/1/3 172/1/3
f 176/5/3 172/5/3 175/5/3
f 177/1/3 169/1/3 176/1/3
f 180/1/3 179/1/3 178/1/3
f 181/1/3 179/1/3 180/1/3
f 182/1/3 180/1/3 178/1/3
f 183/1/3 180/1/3 182/1/3
f 187/1/3 185/1/3 184/1/3
f 187/2/3 186/2/3 185/2/3
f 188/2/3 186/2/3 187/2/3
f 189/1/3 187/1/3 184/1/3
f 190/3/3 188/3/3 187/3/3
f 190/1/3 187/1/3 189/1/3
f 191/3/3 188/3/3 190/3/3
f 194/1/3 193/1/3 192/1/3
f 195/1/3 193/1/3 194/1/3
f 196/1/3 193/1/3 195/1/3
f 197/2/3 195/2/3 194/2/3
f 198/2/3 195/2/3 197/2/3
f 199/1/4 200/1/4 201/1/4
f 201/1/4 200/1/4 202/1/4
f 202/1/4 200/1/4 203/1/4
f 201/2/4 202/2/4 204/2/4
f 204/2/4 202/2/4 205/2/4
f 206/1/4 207/1/4 208/1/4
f 208/1/4 207/1/4 209/1/4
f 206/1/4 208/1/4 210/1/4
f 210/1/4 208/1/4 211/1/4
f 212/1/4 213/1/4 215/1/4
f 213/2/4 214/2/4 215/2/4
f 215/2/4 214/2/4 216/2/4
f 212/1/4 215/1/4 217/1/4
f 215/3/4 216/3/4 218/3/4
f 217/1/4 215/1/4 218/1/4
f 218/3/4 216/3/4 219/3/4
f 220/2/4 221/2/4 223/2/4
f 221/1/4 222/1/4 224/1/4
f 223/2/4 221/2/4 224/2/4
f 224/1/4 222/1/4 225/1/4
f 225/1/4 222/1/4 226/1/4
f 223/1/4 224/1/4 227/1/4
f 224/1/4 225/1/4 227/1/4
f 223/1/4 227/1/4 229/1/4
f 227/1/4 228/1/4 229/1/4
f 229/1/4 228/1/4 230/1/4
f 230/1/4 228/1/4 231/1/4
f 223/1/4 229/1/4 232/1/4
f 229/4/4 230/4/4 233/4/4
f 232/1/4 229/1/4 233/1/4
f 230/5/4 231/5/4 234/5/4
f 233/4/4 230/4/4 234/4/4
f 231/1/4 228/1/4 235/1/4
f 234/5/4 231/5/4 235/5/4
f 235/1/4 228/1/4 236/1/4
f 237/2/4 238/2/4 239/2/4
f 239/2/4 238/2/4 240/2/4
f 239/1/4 240/1/4 242/1/4
f 240/2/4 238/2/4 243/2/4
f 242/1/4 240/1/4 243/1/4
f 243/2/4 238/2/4 244/2/4
f 241/1/4 242/1/4 248/1/4
f 242/1/4 243/1/4 248/1/4
f 243/1/4 244/1/4 248/1/4
f 245/2/4 246/2/4 249/2/4
f 249/2/4 246/2/4 250/2/4
f 247/1/4 248/1/4 252/1/4
f 248/1/4 244/1/4 253/1/4
f 251/1/4 252/1/4 253/1/4
f 252/1/4 248/1/4 253/1/4
f 253/1/4 244/1/4 254/1/4
f 251/1/4 253/1/4 255/1/4
f 255/1/4 253/1/4 256/1/4
f 256/1/4 253/1/4 257/1/4
f 255/2/4 256/2/4 258/2/4
f 258/2/4 256/2/4 259/2/4
f 260/1/4 261/1/4 262/1/4
f 262/1/4 261/1/4 263/1/4
f 260/1/4 262/1/4 266/1/4
f 266/1/4 262/1/4 267/1/4
f 267/1/4 262/1/4 268/1/4
f 264/2/4 265/2/4 269/2/4
f 269/2/4 265/2/4 270/2/4
f 266/2/4 267/2/4 271/2/4
f 271/2/4 267/2/4 272/2/4
f 276/1/5 274/1/5 273/1/5
f 277/1/5 274/1/5 276/1/5
f 278/2/5 275/2/5 274/2/5
f 278/1/5 274/1/5 277/1/5
f 279/2/5 275/2/5 278/2/5
f 283/2/5 277/2/5 276/2/5
f 284/1/5 278/1/5 277/1/5
f 284/1/5 279/1/5 278/1/5
f 284/1/5 280/1/5 279/1/5
f 285/2/5 281/2/5 280/2/5
f 285/1/5 280/1/5 284/1/5
f 286/2/5 281/2/5 285/2/5
f 287/1/5 283/1/5 282/1/5
f 288/2/5 277/2/5 283/2/5
f 288/1/5 283/1/5 287/1/5
f 289/1/5 284/1/5 277/1/5
f 292/2/5 277/2/5 288/2/5
f 293/1/5 290/1/5 289/1/5
f 293/2/5 277/2/5 292/2/5
f 293/1/5 289/1/5 277/1/5
f 294/1/5 290/1/5 293/1/5
f 295/1/5 290/1/5 294/1/5
f 296/2/5 291/2/5 290/2/5
f 296/1/5 290/1/5 295/1/5
f 297/2/5 291/2/5 296/2/5
f 298/1/5 293/1/5 292/1/5
f 298/1/5 294/1/5 293/1/5
f 299/2/5 295/2/5 294/2/5
f 299/1/5 294/1/5 298/1/5
f 300/2/5 295/2/5 299/2/5
f 303/1/5 302/1/5 301/1/5
f 304/1/5 302/1/5 303/1/5
f 307/2/5 306/2/5 305/2/5
f 308/2/5 306/2/5 307/2/5
f 311/2/5 310/2/5 309/2/5
f 312/2/5 310/2/5 311/2/5
f 315/2/5 314/2/5 313/2/5
f 316/2/5 314/2/5 315/2/5
f 319/2/5 318/2/5 317/2/5
f 320/2/5 318/2/5 319/2/5
f 321/2/6 322/2/6 323/2/6
f 323/2/6 322/2/6 324/2/6
f 325/2/6 326/2/6 329/2/6
f 329/2/6 326/2/6 330/2/6
f 327/1/6 328/1/6 331/1/6
f 331/1/6 328/1/6 332/1/6
f 333/2/6 334/2/6 337/2/6
f 337/2/6 334/2/6 338/2/6
f 335/2/6 336/2/6 339/2/6
f 339/2/6 336/2/6 340/2/6
f 341/1/6 342/1/6 343/1/6
f 343/1/6 342/1/6 344/1/6
f 345/1/6 346/1/6 347/1/6
f 347/1/6 346/1/6 348/1/6
f 349/1/6 350/1/6 351/1/6
f 351/1/6 350/1/6 352/1/6
f 353/1/6 354/1/6 355/1/6
f 355/1/6 354/1/6 356/1/6
f 356/1/6 354/1/6 357/1/6
f 358/1/6 359/1/6 360/1/6
f 360/1/6 359/1/6 361/1/6
f 362/1/6 363/1/6 367/1/6
f 367/1/6 363/1/6 368/1/6
f 365/1/6 366/1/6 369/1/6
f 364/1/6 365/1/6 369/1/6
f 369/1/6 366/1/6 370/1/6
f 371/2/6 372/2/6 374/2/6
f 372/1/6 373/1/6 375/1/6
f 374/2/6 372/2/6 375/2/6
f 375/1/6 373/1/6 376/1/6
f 371/2/6 374/2/6 377/2/6
f 371/2/6 377/2/6 380/2/6
f 377/2/6 378/2/6 380/2/6
f 378/1/6 379/1/6 381/1/6
f 380/2/6 378/2/6 381/2/6
f 381/1/6 379/1/6 382/1/6
f 383/2/6 384/2/6 386/2/6
f 384/3/6 385/3/6 387/3/6
f 386/2/6 384/2/6 387/2/6
f 387/3/6 385/3/6 388/3/6
f 389/2/6 390/2/6 392/2/6
f 392/2/6 390/2/6 393/2/6
f 391/1/6 392/1/6 395/1/6
f 393/1/6 394/1/6 395/1/6
f 392/1/6 393/1/6 395/1/6
f 395/1/6 394/1/6 396/1/6
f 396/1/6 394/1/6 397/1/6
f 397/1/6 394/1/6 398/1/6
f 396/2/6 397/2/6 399/2/6
f 399/2/6 397/2/6 400/2/6
