# MagicaVoxel @ Ephtracy

# group
o 

# material
mtllib VoxelHusky.mtl
usemtl palette

# normals
vn -1 0 0
vn 1 0 0
vn 0 0 1
vn 0 0 -1
vn 0 -1 0
vn 0 1 0

# texcoords
vt 0.306641 0.5
vt 0.962891 0.5
vt 0.990234 0.5
vt 0.994141 0.5

# verts
v -0.5 0 0.1
v -0.5 0 -0.1
v -0.5 0.3 0.1
v -0.5 0.3 -0.1
v -0.3 0 0.4
v -0.3 0 0.3
v -0.3 0 0.1
v -0.3 0 -0.1
v -0.3 0 -0.3
v -0.3 0 -0.4
v -0.3 0.1 0.1
v -0.3 0.1 -0.1
v -0.3 0.3 0.4
v -0.3 0.3 0.3
v -0.3 0.3 -0.3
v -0.3 0.3 -0.4
v -0.3 0.5 0.3
v -0.3 0.5 -0.3
v -0.2 0.5 0.2
v -0.2 0.5 -0.2
v -0.2 0.8 0.3
v -0.2 0.8 0.2
v -0.2 0.8 -0.2
v -0.2 0.8 -0.3
v -0.2 1 0.1
v -0.2 1 -0.1
v -0.2 1.1 0.3
v -0.2 1.1 0.2
v -0.2 1.1 -0.2
v -0.2 1.1 -0.3
v -0.2 1.2 0.2
v -0.2 1.2 0.1
v -0.2 1.2 -0.1
v -0.2 1.2 -0.2
v -0.4 0.1 0.1
v -0.4 0.1 -0.1
v -0.4 0.3 0.1
v -0.4 0.3 -0.1
v -0.1 0.2 0.4
v -0.1 0.2 0.3
v -0.1 0.2 -0.3
v -0.1 0.2 -0.4
v -0.1 0.3 0.4
v -0.1 0.3 0.3
v -0.1 0.3 -0.3
v -0.1 0.3 -0.4
v 0 0.1 0.4
v 0 0.1 0.3
v 0 0.1 -0.3
v 0 0.1 -0.4
v 0 0.2 0.4
v 0 0.2 0.3
v 0 0.2 -0.3
v 0 0.2 -0.4
v 0 0.8 0.3
v 0 0.8 0.2
v 0 0.8 -0.2
v 0 0.8 -0.3
v 0 0.9 0.2
v 0 0.9 -0.2
v 0 1 0.3
v 0 1 0.2
v 0 1 0.1
v 0 1 -0.1
v 0 1 -0.2
v 0 1 -0.3
v 0 1.1 0.3
v 0 1.1 0.2
v 0 1.1 0.1
v 0 1.1 -0.1
v 0 1.1 -0.2
v 0 1.1 -0.3
v 0 1.2 0.2
v 0 1.2 0.1
v 0 1.2 -0.1
v 0 1.2 -0.2
v 0.1 0 0.4
v 0.1 0 0.3
v 0.1 0 -0.3
v 0.1 0 -0.4
v 0.1 0.1 0.4
v 0.1 0.1 0.3
v 0.1 0.1 -0.3
v 0.1 0.1 -0.4
v 0.2 0 0.1
v 0.2 0 -0.1
v 0.2 0.3 0.3
v 0.2 0.3 0.1
v 0.2 0.3 -0.1
v 0.2 0.3 -0.3
v 0.2 0.5 0.3
v 0.2 0.5 0.2
v 0.2 0.5 -0.2
v 0.2 0.5 -0.3
v 0.2 0.6 0.1
v 0.2 0.6 -0.1
v 0.2 0.7 0.2
v 0.2 0.7 0.1
v 0.2 0.7 -0.1
v 0.2 0.7 -0.2
v 0.2 0.8 0.2
v 0.2 0.8 0.1
v 0.2 0.8 -0.1
v 0.2 0.8 -0.2
v 0.2 0.9 0.2
v 0.2 0.9 0.1
v 0.2 0.9 -0.1
v 0.2 0.9 -0.2
v 0.2 1 0.2
v 0.2 1 0.1
v 0.2 1 -0.1
v 0.2 1 -0.2
v 0.3 0.1 0.3
v 0.3 0.1 0.1
v 0.3 0.1 -0.1
v 0.3 0.1 -0.3
v 0.3 0.3 0.3
v 0.3 0.3 0.1
v 0.3 0.3 -0.1
v 0.3 0.3 -0.3
v 0.4 0 0.3
v 0.4 0 0.1
v 0.4 0 -0.1
v 0.4 0 -0.3
v 0.4 0.1 0.3
v 0.4 0.1 0.1
v 0.4 0.1 -0.1
v 0.4 0.1 -0.3
v 0.4 0.6 0.1
v 0.4 0.6 -0.1
v 0.4 0.7 0.1
v 0.4 0.7 -0.1
v 0.4 0.8 0.1
v 0.4 0.8 -0.1
v -0.3 0 0.4
v -0.3 0.3 0.4
v -0.1 0.2 0.4
v -0.1 0.3 0.4
v 0 0.1 0.4
v 0 0.2 0.4
v 0.1 0 0.4
v 0.1 0.1 0.4
v -0.3 0.3 0.3
v -0.3 0.5 0.3
v -0.2 0.3 0.3
v -0.2 0.4 0.3
v -0.2 0.8 0.3
v -0.2 1.1 0.3
v -0.1 0.2 0.3
v -0.1 0.3 0.3
v -0.1 0.4 0.3
v -0.1 0.5 0.3
v -0.1 0.8 0.3
v -0.1 1 0.3
v 0 0.1 0.3
v 0 0.2 0.3
v 0 0.8 0.3
v 0 1 0.3
v 0 1.1 0.3
v 0.1 0 0.3
v 0.1 0.1 0.3
v 0.2 0.3 0.3
v 0.2 0.5 0.3
v 0.3 0.1 0.3
v 0.3 0.3 0.3
v 0.4 0 0.3
v 0.4 0.1 0.3
v -0.2 0.5 0.2
v -0.2 0.8 0.2
v -0.2 1.1 0.2
v -0.2 1.2 0.2
v -0.1 0.5 0.2
v -0.1 0.6 0.2
v -0.1 0.8 0.2
v 0 0.7 0.2
v 0 0.8 0.2
v 0 0.9 0.2
v 0 1 0.2
v 0 1.1 0.2
v 0 1.2 0.2
v 0.1 0.6 0.2
v 0.1 0.7 0.2
v 0.1 0.8 0.2
v 0.1 0.9 0.2
v 0.1 1 0.2
v 0.2 0.5 0.2
v 0.2 0.7 0.2
v 0.2 0.8 0.2
v 0.2 0.9 0.2
v 0.2 1 0.2
v -0.5 0 0.1
v -0.5 0.3 0.1
v -0.4 0.1 0.1
v -0.4 0.3 0.1
v -0.3 0 0.1
v -0.3 0.1 0.1
v 0.2 0.6 0.1
v 0.2 0.7 0.1
v 0.2 0.8 0.1
v 0.3 0.7 0.1
v 0.3 0.8 0.1
v 0.4 0.6 0.1
v 0.4 0.7 0.1
v 0.4 0.8 0.1
v -0.2 1 -0.1
v -0.2 1.2 -0.1
v -0.1 1 -0.1
v -0.1 1.1 -0.1
v 0 1 -0.1
v 0 1.1 -0.1
v 0 1.2 -0.1
v 0.2 0 -0.1
v 0.2 0.3 -0.1
v 0.3 0.1 -0.1
v 0.3 0.3 -0.1
v 0.4 0 -0.1
v 0.4 0.1 -0.1
v -0.2 1 0.1
v -0.2 1.2 0.1
v -0.1 1 0.1
v -0.1 1.1 0.1
v 0 1 0.1
v 0 1.1 0.1
v 0 1.2 0.1
v 0.2 0 0.1
v 0.2 0.3 0.1
v 0.3 0.1 0.1
v 0.3 0.3 0.1
v 0.4 0 0.1
v 0.4 0.1 0.1
v -0.5 0 -0.1
v -0.5 0.3 -0.1
v -0.4 0.1 -0.1
v -0.4 0.3 -0.1
v -0.3 0 -0.1
v -0.3 0.1 -0.1
v 0.2 0.6 -0.1
v 0.2 0.7 -0.1
v 0.2 0.8 -0.1
v 0.3 0.7 -0.1
v 0.3 0.8 -0.1
v 0.4 0.6 -0.1
v 0.4 0.7 -0.1
v 0.4 0.8 -0.1
v -0.2 0.5 -0.2
v -0.2 0.8 -0.2
v -0.2 1.1 -0.2
v -0.2 1.2 -0.2
v -0.1 0.5 -0.2
v -0.1 0.6 -0.2
v -0.1 0.8 -0.2
v 0 0.7 -0.2
v 0 0.8 -0.2
v 0 0.9 -0.2
v 0 1 -0.2
v 0 1.1 -0.2
v 0 1.2 -0.2
v 0.1 0.6 -0.2
v 0.1 0.7 -0.2
v 0.1 0.8 -0.2
v 0.1 0.9 -0.2
v 0.1 1 -0.2
v 0.2 0.5 -0.2
v 0.2 0.7 -0.2
v 0.2 0.8 -0.2
v 0.2 0.9 -0.2
v 0.2 1 -0.2
v -0.3 0.3 -0.3
v -0.3 0.5 -0.3
v -0.2 0.3 -0.3
v -0.2 0.4 -0.3
v -0.2 0.8 -0.3
v -0.2 1.1 -0.3
v -0.1 0.2 -0.3
v -0.1 0.3 -0.3
v -0.1 0.4 -0.3
v -0.1 0.5 -0.3
v -0.1 0.8 -0.3
v -0.1 1 -0.3
v 0 0.1 -0.3
v 0 0.2 -0.3
v 0 0.8 -0.3
v 0 1 -0.3
v 0 1.1 -0.3
v 0.1 0 -0.3
v 0.1 0.1 -0.3
v 0.2 0.3 -0.3
v 0.2 0.5 -0.3
v 0.3 0.1 -0.3
v 0.3 0.3 -0.3
v 0.4 0 -0.3
v 0.4 0.1 -0.3
v -0.3 0 -0.4
v -0.3 0.3 -0.4
v -0.1 0.2 -0.4
v -0.1 0.3 -0.4
v 0 0.1 -0.4
v 0 0.2 -0.4
v 0.1 0 -0.4
v 0.1 0.1 -0.4
v -0.3 0 0.4
v 0.1 0 0.4
v -0.3 0 0.3
v -0.2 0 0.3
v 0.1 0 0.3
v 0.4 0 0.3
v -0.5 0 0.1
v -0.3 0 0.1
v 0.2 0 0.1
v 0.4 0 0.1
v -0.5 0 -0.1
v -0.3 0 -0.1
v 0.2 0 -0.1
v 0.4 0 -0.1
v -0.3 0 -0.3
v -0.2 0 -0.3
v 0.1 0 -0.3
v 0.4 0 -0.3
v -0.3 0 -0.4
v 0.1 0 -0.4
v 0.2 0.6 0.1
v 0.4 0.6 0.1
v 0.2 0.6 -0.1
v 0.4 0.6 -0.1
v -0.2 0.8 0.3
v -0.1 0.8 0.3
v 0 0.8 0.3
v -0.2 0.8 0.2
v -0.1 0.8 0.2
v 0 0.8 0.2
v -0.2 0.8 -0.2
v -0.1 0.8 -0.2
v 0 0.8 -0.2
v -0.2 0.8 -0.3
v -0.1 0.8 -0.3
v 0 0.8 -0.3
v 0 0.1 0.4
v 0.1 0.1 0.4
v 0 0.1 0.3
v 0.1 0.1 0.3
v 0.3 0.1 0.3
v 0.4 0.1 0.3
v -0.4 0.1 0.1
v -0.3 0.1 0.1
v 0.3 0.1 0.1
v 0.4 0.1 0.1
v -0.4 0.1 -0.1
v -0.3 0.1 -0.1
v 0.3 0.1 -0.1
v 0.4 0.1 -0.1
v 0 0.1 -0.3
v 0.1 0.1 -0.3
v 0.3 0.1 -0.3
v 0.4 0.1 -0.3
v 0 0.1 -0.4
v 0.1 0.1 -0.4
v -0.1 0.2 0.4
v 0 0.2 0.4
v -0.1 0.2 0.3
v 0 0.2 0.3
v -0.1 0.2 -0.3
v 0 0.2 -0.3
v -0.1 0.2 -0.4
v 0 0.2 -0.4
v -0.3 0.3 0.4
v -0.1 0.3 0.4
v -0.3 0.3 0.3
v -0.2 0.3 0.3
v -0.1 0.3 0.3
v 0.2 0.3 0.3
v 0.3 0.3 0.3
v -0.5 0.3 0.1
v -0.4 0.3 0.1
v 0.2 0.3 0.1
v 0.3 0.3 0.1
v -0.5 0.3 -0.1
v -0.4 0.3 -0.1
v 0.2 0.3 -0.1
v 0.3 0.3 -0.1
v -0.3 0.3 -0.3
v -0.2 0.3 -0.3
v -0.1 0.3 -0.3
v 0.2 0.3 -0.3
v 0.3 0.3 -0.3
v -0.3 0.3 -0.4
v -0.1 0.3 -0.4
v -0.3 0.5 0.3
v -0.1 0.5 0.3
v 0.2 0.5 0.3
v -0.2 0.5 0.2
v -0.1 0.5 0.2
v 0.2 0.5 0.2
v -0.2 0.5 -0.2
v -0.1 0.5 -0.2
v 0.2 0.5 -0.2
v -0.3 0.5 -0.3
v -0.1 0.5 -0.3
v 0.2 0.5 -0.3
v 0.2 0.8 0.1
v 0.3 0.8 0.1
v 0.4 0.8 0.1
v 0.2 0.8 -0.1
v 0.3 0.8 -0.1
v 0.4 0.8 -0.1
v 0 1 0.2
v 0.1 1 0.2
v 0.2 1 0.2
v -0.2 1 0.1
v -0.1 1 0.1
v 0 1 0.1
v 0.1 1 0.1
v 0.2 1 0.1
v -0.2 1 -0.1
v -0.1 1 -0.1
v 0 1 -0.1
v 0.1 1 -0.1
v 0.2 1 -0.1
v 0 1 -0.2
v 0.1 1 -0.2
v 0.2 1 -0.2
v -0.2 1.1 0.3
v 0 1.1 0.3
v -0.2 1.1 0.2
v 0 1.1 0.2
v -0.2 1.1 -0.2
v 0 1.1 -0.2
v -0.2 1.1 -0.3
v 0 1.1 -0.3
v -0.2 1.2 0.2
v 0 1.2 0.2
v -0.2 1.2 0.1
v 0 1.2 0.1
v -0.2 1.2 -0.1
v 0 1.2 -0.1
v -0.2 1.2 -0.2
v 0 1.2 -0.2

# faces
f 3/3/1 2/3/1 1/3/1
f 4/3/1 2/3/1 3/3/1
f 11/3/1 7/3/1 6/3/1
f 12/3/1 9/3/1 8/3/1
f 13/2/1 6/2/1 5/2/1
f 14/3/1 12/3/1 11/3/1
f 14/2/1 6/2/1 13/2/1
f 14/3/1 11/3/1 6/3/1
f 15/2/1 10/2/1 9/2/1
f 15/3/1 12/3/1 14/3/1
f 15/3/1 9/3/1 12/3/1
f 16/2/1 10/2/1 15/2/1
f 17/3/1 15/3/1 14/3/1
f 18/3/1 15/3/1 17/3/1
f 22/3/1 20/3/1 19/3/1
f 23/3/1 20/3/1 22/3/1
f 25/3/1 22/3/1 21/3/1
f 25/3/1 24/3/1 23/3/1
f 25/3/1 23/3/1 22/3/1
f 26/3/1 24/3/1 25/3/1
f 27/3/1 25/3/1 21/3/1
f 28/3/1 25/3/1 27/3/1
f 29/3/1 24/3/1 26/3/1
f 30/3/1 24/3/1 29/3/1
f 31/3/1 25/3/1 28/3/1
f 32/3/1 25/3/1 31/3/1
f 33/3/1 29/3/1 26/3/1
f 34/3/1 29/3/1 33/3/1
f 35/3/2 36/3/2 37/3/2
f 37/3/2 36/3/2 38/3/2
f 39/2/2 40/2/2 43/2/2
f 43/2/2 40/2/2 44/2/2
f 41/2/2 42/2/2 45/2/2
f 45/2/2 42/2/2 46/2/2
f 47/2/2 48/2/2 51/2/2
f 51/2/2 48/2/2 52/2/2
f 49/2/2 50/2/2 53/2/2
f 53/2/2 50/2/2 54/2/2
f 55/2/2 56/2/2 59/2/2
f 57/2/2 58/2/2 60/2/2
f 55/2/2 59/2/2 61/2/2
f 61/2/2 59/2/2 62/2/2
f 60/2/2 58/2/2 65/2/2
f 65/2/2 58/2/2 66/2/2
f 61/3/2 62/3/2 67/3/2
f 62/2/2 63/2/2 68/2/2
f 67/3/2 62/3/2 68/3/2
f 68/2/2 63/2/2 69/2/2
f 64/2/2 65/2/2 70/2/2
f 65/3/2 66/3/2 71/3/2
f 70/2/2 65/2/2 71/2/2
f 71/3/2 66/3/2 72/3/2
f 68/3/2 69/3/2 73/3/2
f 73/3/2 69/3/2 74/3/2
f 70/3/2 71/3/2 75/3/2
f 75/3/2 71/3/2 76/3/2
f 77/2/2 78/2/2 81/2/2
f 81/2/2 78/2/2 82/2/2
f 79/2/2 80/2/2 83/2/2
f 83/2/2 80/2/2 84/2/2
f 85/2/2 86/2/2 88/2/2
f 88/2/2 86/2/2 89/2/2
f 87/2/2 88/2/2 91/2/2
f 89/2/2 90/2/2 91/2/2
f 88/2/2 89/2/2 91/2/2
f 91/2/2 90/2/2 92/2/2
f 92/2/2 90/2/2 93/2/2
f 93/2/2 90/2/2 94/2/2
f 92/2/2 93/2/2 95/2/2
f 95/2/2 93/2/2 96/2/2
f 92/2/2 95/2/2 97/2/2
f 97/2/2 95/2/2 98/2/2
f 96/2/2 93/2/2 99/2/2
f 99/2/2 93/2/2 100/2/2
f 97/4/2 98/4/2 101/4/2
f 101/4/2 98/4/2 102/4/2
f 99/4/2 100/4/2 103/4/2
f 103/4/2 100/4/2 104/4/2
f 101/1/2 102/1/2 105/1/2
f 102/2/2 103/2/2 106/2/2
f 105/1/2 102/1/2 106/1/2
f 103/1/2 104/1/2 107/1/2
f 106/2/2 103/2/2 107/2/2
f 107/1/2 104/1/2 108/1/2
f 105/2/2 106/2/2 109/2/2
f 106/3/2 107/3/2 110/3/2
f 109/2/2 106/2/2 110/2/2
f 107/2/2 108/2/2 111/2/2
f 110/3/2 107/3/2 111/3/2
f 111/2/2 108/2/2 112/2/2
f 113/2/2 114/2/2 117/2/2
f 117/2/2 114/2/2 118/2/2
f 115/2/2 116/2/2 119/2/2
f 119/2/2 116/2/2 120/2/2
f 121/2/2 122/2/2 125/2/2
f 125/2/2 122/2/2 126/2/2
f 123/2/2 124/2/2 127/2/2
f 127/2/2 124/2/2 128/2/2
f 129/2/2 130/2/2 131/2/2
f 131/2/2 130/2/2 132/2/2
f 131/3/2 132/3/2 133/3/2
f 133/3/2 132/3/2 134/3/2
f 137/2/3 136/2/3 135/2/3
f 138/2/3 136/2/3 137/2/3
f 139/2/3 137/2/3 135/2/3
f 140/2/3 137/2/3 139/2/3
f 141/2/3 139/2/3 135/2/3
f 142/2/3 139/2/3 141/2/3
f 145/3/3 144/3/3 143/3/3
f 146/3/3 144/3/3 145/3/3
f 150/2/3 146/2/3 145/2/3
f 151/3/3 144/3/3 146/3/3
f 151/2/3 146/2/3 150/2/3
f 152/3/3 144/3/3 151/3/3
f 153/3/3 148/3/3 147/3/3
f 154/3/3 148/3/3 153/3/3
f 156/2/3 152/2/3 151/2/3
f 156/2/3 150/2/3 149/2/3
f 156/2/3 151/2/3 150/2/3
f 157/2/3 154/2/3 153/2/3
f 158/3/3 148/3/3 154/3/3
f 158/2/3 154/2/3 157/2/3
f 159/3/3 148/3/3 158/3/3
f 161/2/3 156/2/3 155/2/3
f 162/2/3 152/2/3 156/2/3
f 162/2/3 161/2/3 160/2/3
f 162/2/3 156/2/3 161/2/3
f 163/2/3 152/2/3 162/2/3
f 164/2/3 162/2/3 160/2/3
f 165/2/3 162/2/3 164/2/3
f 166/2/3 164/2/3 160/2/3
f 167/2/3 164/2/3 166/2/3
f 172/3/3 169/3/3 168/3/3
f 173/3/3 169/3/3 172/3/3
f 174/3/3 169/3/3 173/3/3
f 175/3/3 174/3/3 173/3/3
f 176/3/3 174/3/3 175/3/3
f 179/3/3 171/3/3 170/3/3
f 180/3/3 171/3/3 179/3/3
f 181/2/3 173/2/3 172/2/3
f 181/3/3 175/3/3 173/3/3
f 182/2/3 176/2/3 175/2/3
f 182/3/3 175/3/3 181/3/3
f 182/2/3 177/2/3 176/2/3
f 183/2/3 177/2/3 182/2/3
f 184/3/3 178/3/3 177/3/3
f 184/2/3 177/2/3 183/2/3
f 185/3/3 178/3/3 184/3/3
f 186/2/3 181/2/3 172/2/3
f 186/2/3 182/2/3 181/2/3
f 187/4/3 183/4/3 182/4/3
f 187/2/3 182/2/3 186/2/3
f 188/1/3 184/1/3 183/1/3
f 188/4/3 183/4/3 187/4/3
f 189/2/3 185/2/3 184/2/3
f 189/1/3 184/1/3 188/1/3
f 190/2/3 185/2/3 189/2/3
f 193/3/3 192/3/3 191/3/3
f 194/3/3 192/3/3 193/3/3
f 195/3/3 193/3/3 191/3/3
f 196/3/3 193/3/3 195/3/3
f 200/2/3 198/2/3 197/2/3
f 200/2/3 199/2/3 198/2/3
f 201/2/3 199/2/3 200/2/3
f 202/2/3 200/2/3 197/2/3
f 203/3/3 201/3/3 200/3/3
f 203/2/3 200/2/3 202/2/3
f 204/3/3 201/3/3 203/3/3
f 207/3/3 206/3/3 205/3/3
f 208/3/3 206/3/3 207/3/3
f 209/2/3 208/2/3 207/2/3
f 210/3/3 206/3/3 208/3/3
f 210/2/3 208/2/3 209/2/3
f 211/3/3 206/3/3 210/3/3
f 214/2/3 213/2/3 212/2/3
f 215/2/3 213/2/3 214/2/3
f 216/2/3 214/2/3 212/2/3
f 217/2/3 214/2/3 216/2/3
f 218/3/4 219/3/4 220/3/4
f 220/3/4 219/3/4 221/3/4
f 220/2/4 221/2/4 222/2/4
f 221/3/4 219/3/4 223/3/4
f 222/2/4 221/2/4 223/2/4
f 223/3/4 219/3/4 224/3/4
f 225/2/4 226/2/4 227/2/4
f 227/2/4 226/2/4 228/2/4
f 225/2/4 227/2/4 229/2/4
f 229/2/4 227/2/4 230/2/4
f 231/3/4 232/3/4 233/3/4
f 233/3/4 232/3/4 234/3/4
f 231/3/4 233/3/4 235/3/4
f 235/3/4 233/3/4 236/3/4
f 237/2/4 238/2/4 240/2/4
f 238/2/4 239/2/4 240/2/4
f 240/2/4 239/2/4 241/2/4
f 237/2/4 240/2/4 242/2/4
f 240/3/4 241/3/4 243/3/4
f 242/2/4 240/2/4 243/2/4
f 243/3/4 241/3/4 244/3/4
f 245/3/4 246/3/4 249/3/4
f 249/3/4 246/3/4 250/3/4
f 250/3/4 246/3/4 251/3/4
f 250/3/4 251/3/4 252/3/4
f 252/3/4 251/3/4 253/3/4
f 247/3/4 248/3/4 256/3/4
f 256/3/4 248/3/4 257/3/4
f 249/2/4 250/2/4 258/2/4
f 250/3/4 252/3/4 258/3/4
f 252/2/4 253/2/4 259/2/4
f 258/3/4 252/3/4 259/3/4
f 253/2/4 254/2/4 259/2/4
f 259/2/4 254/2/4 260/2/4
f 254/3/4 255/3/4 261/3/4
f 260/2/4 254/2/4 261/2/4
f 261/3/4 255/3/4 262/3/4
f 249/2/4 258/2/4 263/2/4
f 258/2/4 259/2/4 263/2/4
f 259/4/4 260/4/4 264/4/4
f 263/2/4 259/2/4 264/2/4
f 260/1/4 261/1/4 265/1/4
f 264/4/4 260/4/4 265/4/4
f 261/2/4 262/2/4 266/2/4
f 265/1/4 261/1/4 266/1/4
f 266/2/4 262/2/4 267/2/4
f 268/3/4 269/3/4 270/3/4
f 270/3/4 269/3/4 271/3/4
f 270/2/4 271/2/4 275/2/4
f 271/3/4 269/3/4 276/3/4
f 275/2/4 271/2/4 276/2/4
f 276/3/4 269/3/4 277/3/4
f 272/3/4 273/3/4 278/3/4
f 278/3/4 273/3/4 279/3/4
f 276/2/4 277/2/4 281/2/4
f 274/2/4 275/2/4 281/2/4
f 275/2/4 276/2/4 281/2/4
f 278/2/4 279/2/4 282/2/4
f 279/3/4 273/3/4 283/3/4
f 282/2/4 279/2/4 283/2/4
f 283/3/4 273/3/4 284/3/4
f 280/2/4 281/2/4 286/2/4
f 281/2/4 277/2/4 287/2/4
f 285/2/4 286/2/4 287/2/4
f 286/2/4 281/2/4 287/2/4
f 287/2/4 277/2/4 288/2/4
f 285/2/4 287/2/4 289/2/4
f 289/2/4 287/2/4 290/2/4
f 285/2/4 289/2/4 291/2/4
f 291/2/4 289/2/4 292/2/4
f 293/2/4 294/2/4 295/2/4
f 295/2/4 294/2/4 296/2/4
f 293/2/4 295/2/4 297/2/4
f 297/2/4 295/2/4 298/2/4
f 293/2/4 297/2/4 299/2/4
f 299/2/4 297/2/4 300/2/4
f 303/2/5 302/2/5 301/2/5
f 304/2/5 302/2/5 303/2/5
f 305/2/5 302/2/5 304/2/5
f 308/3/5 304/3/5 303/3/5
f 309/2/5 306/2/5 305/2/5
f 309/2/5 305/2/5 304/2/5
f 310/2/5 306/2/5 309/2/5
f 311/3/5 308/3/5 307/3/5
f 312/3/5 304/3/5 308/3/5
f 312/3/5 308/3/5 311/3/5
f 313/2/5 309/2/5 304/2/5
f 315/3/5 304/3/5 312/3/5
f 316/2/5 314/2/5 313/2/5
f 316/3/5 304/3/5 315/3/5
f 316/2/5 313/2/5 304/2/5
f 317/2/5 314/2/5 316/2/5
f 318/2/5 314/2/5 317/2/5
f 319/2/5 316/2/5 315/2/5
f 319/2/5 317/2/5 316/2/5
f 320/2/5 317/2/5 319/2/5
f 323/2/5 322/2/5 321/2/5
f 324/2/5 322/2/5 323/2/5
f 328/3/5 326/3/5 325/3/5
f 329/2/5 327/2/5 326/2/5
f 329/3/5 326/3/5 328/3/5
f 330/2/5 327/2/5 329/2/5
f 334/3/5 332/3/5 331/3/5
f 335/2/5 333/2/5 332/2/5
f 335/3/5 332/3/5 334/3/5
f 336/2/5 333/2/5 335/2/5
f 337/2/6 338/2/6 339/2/6
f 339/2/6 338/2/6 340/2/6
f 341/2/6 342/2/6 345/2/6
f 345/2/6 342/2/6 346/2/6
f 343/3/6 344/3/6 347/3/6
f 347/3/6 344/3/6 348/3/6
f 349/2/6 350/2/6 353/2/6
f 353/2/6 350/2/6 354/2/6
f 351/2/6 352/2/6 355/2/6
f 355/2/6 352/2/6 356/2/6
f 357/2/6 358/2/6 359/2/6
f 359/2/6 358/2/6 360/2/6
f 361/2/6 362/2/6 363/2/6
f 363/2/6 362/2/6 364/2/6
f 365/2/6 366/2/6 367/2/6
f 367/2/6 366/2/6 368/2/6
f 368/2/6 366/2/6 369/2/6
f 370/2/6 371/2/6 374/2/6
f 374/2/6 371/2/6 375/2/6
f 372/3/6 373/3/6 376/3/6
f 376/3/6 373/3/6 377/3/6
f 378/2/6 379/2/6 383/2/6
f 383/2/6 379/2/6 384/2/6
f 381/2/6 382/2/6 385/2/6
f 380/2/6 381/2/6 385/2/6
f 385/2/6 382/2/6 386/2/6
f 387/3/6 388/3/6 390/3/6
f 388/2/6 389/2/6 391/2/6
f 390/3/6 388/3/6 391/3/6
f 391/2/6 389/2/6 392/2/6
f 387/3/6 390/3/6 393/3/6
f 387/3/6 393/3/6 396/3/6
f 393/3/6 394/3/6 396/3/6
f 394/2/6 395/2/6 397/2/6
f 396/3/6 394/3/6 397/3/6
f 397/2/6 395/2/6 398/2/6
f 399/2/6 400/2/6 402/2/6
f 400/3/6 401/3/6 403/3/6
f 402/2/6 400/2/6 403/2/6
f 403/3/6 401/3/6 404/3/6
f 405/3/6 406/3/6 410/3/6
f 406/2/6 407/2/6 411/2/6
f 410/3/6 406/3/6 411/3/6
f 411/2/6 407/2/6 412/2/6
f 408/3/6 409/3/6 413/3/6
f 409/3/6 410/3/6 413/3/6
f 411/3/6 412/3/6 413/3/6
f 410/3/6 411/3/6 413/3/6
f 413/3/6 412/3/6 414/3/6
f 414/3/6 412/3/6 415/3/6
f 415/3/6 412/3/6 416/3/6
f 416/3/6 412/3/6 417/3/6
f 415/3/6 416/3/6 418/3/6
f 416/2/6 417/2/6 419/2/6
f 418/3/6 416/3/6 419/3/6
f 419/2/6 417/2/6 420/2/6
f 421/3/6 422/3/6 423/3/6
f 423/3/6 422/3/6 424/3/6
f 425/3/6 426/3/6 427/3/6
f 427/3/6 426/3/6 428/3/6
f 429/3/6 430/3/6 431/3/6
f 431/3/6 430/3/6 432/3/6
f 433/3/6 434/3/6 435/3/6
f 435/3/6 434/3/6 436/3/6
