# MagicaVoxel @ Ephtracy

# group
o 

# material
mtllib VoxelPitbull.mtl
usemtl palette

# normals
vn -1 0 0
vn 1 0 0
vn 0 0 1
vn 0 0 -1
vn 0 -1 0
vn 0 1 0

# texcoords
vt 0.0410156 0.5
vt 0.458984 0.5
vt 0.537109 0.5
vt 0.962891 0.5
vt 0.986328 0.5
vt 0.994141 0.5

# verts
v -0.5 0 0.1
v -0.5 0 -0.1
v -0.5 0.2 0.1
v -0.5 0.2 -0.1
v -0.3 0 0.4
v -0.3 0 0.3
v -0.3 0 0.1
v -0.3 0 -0.1
v -0.3 0 -0.3
v -0.3 0 -0.4
v -0.3 0.1 0.1
v -0.3 0.1 -0.1
v -0.3 0.3 0.4
v -0.3 0.3 0.3
v -0.3 0.3 -0.3
v -0.3 0.3 -0.4
v -0.3 0.5 0.3
v -0.3 0.5 -0.3
v -0.2 0.5 0.2
v -0.2 0.5 -0.2
v -0.2 1 0.2
v -0.2 1 -0.2
v -0.1 0.8 0.3
v -0.1 0.8 0.2
v -0.1 0.8 -0.2
v -0.1 0.8 -0.3
v -0.1 1 0.3
v -0.1 1 0.2
v -0.1 1 -0.2
v -0.1 1 -0.3
v -0.4 0.1 0.1
v -0.4 0.1 -0.1
v -0.4 0.2 0.1
v -0.4 0.2 -0.1
v -0.1 0.2 0.4
v -0.1 0.2 0.3
v -0.1 0.2 -0.3
v -0.1 0.2 -0.4
v -0.1 0.3 0.4
v -0.1 0.3 0.3
v -0.1 0.3 -0.3
v -0.1 0.3 -0.4
v 0 0.1 0.4
v 0 0.1 0.3
v 0 0.1 -0.3
v 0 0.1 -0.4
v 0 0.2 0.4
v 0 0.2 0.3
v 0 0.2 -0.3
v 0 0.2 -0.4
v 0 0.8 0.3
v 0 0.8 0.2
v 0 0.8 -0.2
v 0 0.8 -0.3
v 0 1 0.3
v 0 1 0.2
v 0 1 -0.2
v 0 1 -0.3
v 0.1 0 0.4
v 0.1 0 0.3
v 0.1 0 -0.3
v 0.1 0 -0.4
v 0.1 0.1 0.4
v 0.1 0.1 0.3
v 0.1 0.1 -0.3
v 0.1 0.1 -0.4
v 0.2 0 0.1
v 0.2 0 -0.1
v 0.2 0.3 0.3
v 0.2 0.3 0.1
v 0.2 0.3 -0.1
v 0.2 0.3 -0.3
v 0.2 0.5 0.3
v 0.2 0.5 0.2
v 0.2 0.5 -0.2
v 0.2 0.5 -0.3
v 0.2 0.6 0.1
v 0.2 0.6 -0.1
v 0.2 0.7 0.2
v 0.2 0.7 0.1
v 0.2 0.7 -0.1
v 0.2 0.7 -0.2
v 0.2 0.8 0.2
v 0.2 0.8 0.1
v 0.2 0.8 -0.1
v 0.2 0.8 -0.2
v 0.2 0.9 0.2
v 0.2 0.9 0.1
v 0.2 0.9 -0.1
v 0.2 0.9 -0.2
v 0.2 1 0.2
v 0.2 1 0.1
v 0.2 1 -0.1
v 0.2 1 -0.2
v 0.3 0.1 0.3
v 0.3 0.1 0.1
v 0.3 0.1 -0.1
v 0.3 0.1 -0.3
v 0.3 0.3 0.3
v 0.3 0.3 0.1
v 0.3 0.3 -0.1
v 0.3 0.3 -0.3
v 0.3 0.6 0.1
v 0.3 0.6 -0.1
v 0.3 0.7 0.1
v 0.3 0.7 -0.1
v 0.3 0.8 0.1
v 0.3 0.8 -0.1
v 0.4 0 0.3
v 0.4 0 0.1
v 0.4 0 -0.1
v 0.4 0 -0.3
v 0.4 0.1 0.3
v 0.4 0.1 0.1
v 0.4 0.1 -0.1
v 0.4 0.1 -0.3
v -0.3 0 0.4
v -0.3 0.3 0.4
v -0.1 0 0.4
v -0.1 0.2 0.4
v -0.1 0.3 0.4
v 0 0.1 0.4
v 0 0.2 0.4
v 0.1 0 0.4
v 0.1 0.1 0.4
v -0.3 0.3 0.3
v -0.3 0.5 0.3
v -0.2 0.3 0.3
v -0.2 0.4 0.3
v -0.1 0.2 0.3
v -0.1 0.3 0.3
v -0.1 0.4 0.3
v -0.1 0.5 0.3
v -0.1 0.8 0.3
v -0.1 1 0.3
v 0 0.1 0.3
v 0 0.2 0.3
v 0 0.8 0.3
v 0 1 0.3
v 0.1 0 0.3
v 0.1 0.1 0.3
v 0.2 0 0.3
v 0.2 0.3 0.3
v 0.2 0.5 0.3
v 0.3 0.1 0.3
v 0.3 0.3 0.3
v 0.4 0 0.3
v 0.4 0.1 0.3
v -0.2 0.5 0.2
v -0.2 1 0.2
v -0.1 0.5 0.2
v -0.1 0.8 0.2
v -0.1 1 0.2
v 0 0.7 0.2
v 0 0.8 0.2
v 0 1 0.2
v 0.1 0.7 0.2
v 0.1 0.8 0.2
v 0.1 0.9 0.2
v 0.2 0.5 0.2
v 0.2 0.7 0.2
v 0.2 0.8 0.2
v 0.2 0.9 0.2
v 0.2 1 0.2
v -0.5 0 0.1
v -0.5 0.2 0.1
v -0.4 0.1 0.1
v -0.4 0.2 0.1
v -0.3 0 0.1
v -0.3 0.1 0.1
v 0.2 0.6 0.1
v 0.2 0.7 0.1
v 0.2 0.8 0.1
v 0.3 0.6 0.1
v 0.3 0.7 0.1
v 0.3 0.8 0.1
v 0.2 0 -0.1
v 0.2 0.3 -0.1
v 0.3 0.1 -0.1
v 0.3 0.3 -0.1
v 0.4 0 -0.1
v 0.4 0.1 -0.1
v 0.2 0 0.1
v 0.2 0.3 0.1
v 0.3 0.1 0.1
v 0.3 0.3 0.1
v 0.4 0 0.1
v 0.4 0.1 0.1
v -0.5 0 -0.1
v -0.5 0.2 -0.1
v -0.4 0.1 -0.1
v -0.4 0.2 -0.1
v -0.3 0 -0.1
v -0.3 0.1 -0.1
v 0.2 0.6 -0.1
v 0.2 0.7 -0.1
v 0.2 0.8 -0.1
v 0.3 0.6 -0.1
v 0.3 0.7 -0.1
v 0.3 0.8 -0.1
v -0.2 0.5 -0.2
v -0.2 1 -0.2
v -0.1 0.5 -0.2
v -0.1 0.8 -0.2
v -0.1 1 -0.2
v 0 0.7 -0.2
v 0 0.8 -0.2
v 0 1 -0.2
v 0.1 0.7 -0.2
v 0.1 0.8 -0.2
v 0.1 0.9 -0.2
v 0.2 0.5 -0.2
v 0.2 0.7 -0.2
v 0.2 0.8 -0.2
v 0.2 0.9 -0.2
v 0.2 1 -0.2
v -0.3 0.3 -0.3
v -0.3 0.5 -0.3
v -0.2 0.3 -0.3
v -0.2 0.4 -0.3
v -0.1 0.2 -0.3
v -0.1 0.3 -0.3
v -0.1 0.4 -0.3
v -0.1 0.5 -0.3
v -0.1 0.8 -0.3
v -0.1 1 -0.3
v 0 0.1 -0.3
v 0 0.2 -0.3
v 0 0.8 -0.3
v 0 1 -0.3
v 0.1 0 -0.3
v 0.1 0.1 -0.3
v 0.2 0 -0.3
v 0.2 0.3 -0.3
v 0.2 0.5 -0.3
v 0.3 0.1 -0.3
v 0.3 0.3 -0.3
v 0.4 0 -0.3
v 0.4 0.1 -0.3
v -0.3 0 -0.4
v -0.3 0.3 -0.4
v -0.1 0 -0.4
v -0.1 0.2 -0.4
v -0.1 0.3 -0.4
v 0 0.1 -0.4
v 0 0.2 -0.4
v 0.1 0 -0.4
v 0.1 0.1 -0.4
v -0.3 0 0.4
v -0.1 0 0.4
v 0.1 0 0.4
v -0.3 0 0.3
v -0.2 0 0.3
v -0.1 0 0.3
v 0.1 0 0.3
v 0.2 0 0.3
v 0.4 0 0.3
v -0.5 0 0.1
v -0.3 0 0.1
v -0.2 0 0.1
v 0.2 0 0.1
v 0.4 0 0.1
v -0.5 0 -0.1
v -0.3 0 -0.1
v -0.2 0 -0.1
v 0.2 0 -0.1
v 0.4 0 -0.1
v -0.3 0 -0.3
v -0.2 0 -0.3
v -0.1 0 -0.3
v 0.1 0 -0.3
v 0.2 0 -0.3
v 0.4 0 -0.3
v -0.3 0 -0.4
v -0.1 0 -0.4
v 0.1 0 -0.4
v 0.2 0.6 0.1
v 0.3 0.6 0.1
v 0.2 0.6 -0.1
v 0.3 0.6 -0.1
v -0.1 0.8 0.3
v 0 0.8 0.3
v -0.1 0.8 0.2
v 0 0.8 0.2
v -0.1 0.8 -0.2
v 0 0.8 -0.2
v -0.1 0.8 -0.3
v 0 0.8 -0.3
v 0 0.1 0.4
v 0.1 0.1 0.4
v 0 0.1 0.3
v 0.1 0.1 0.3
v 0.3 0.1 0.3
v 0.4 0.1 0.3
v -0.4 0.1 0.1
v -0.3 0.1 0.1
v 0.3 0.1 0.1
v 0.4 0.1 0.1
v -0.4 0.1 -0.1
v -0.3 0.1 -0.1
v 0.3 0.1 -0.1
v 0.4 0.1 -0.1
v 0 0.1 -0.3
v 0.1 0.1 -0.3
v 0.3 0.1 -0.3
v 0.4 0.1 -0.3
v 0 0.1 -0.4
v 0.1 0.1 -0.4
v -0.1 0.2 0.4
v 0 0.2 0.4
v -0.1 0.2 0.3
v 0 0.2 0.3
v -0.5 0.2 0.1
v -0.4 0.2 0.1
v -0.5 0.2 -0.1
v -0.4 0.2 -0.1
v -0.1 0.2 -0.3
v 0 0.2 -0.3
v -0.1 0.2 -0.4
v 0 0.2 -0.4
v -0.3 0.3 0.4
v -0.1 0.3 0.4
v -0.3 0.3 0.3
v -0.2 0.3 0.3
v -0.1 0.3 0.3
v 0.2 0.3 0.3
v 0.3 0.3 0.3
v 0.2 0.3 0.1
v 0.3 0.3 0.1
v 0.2 0.3 -0.1
v 0.3 0.3 -0.1
v -0.3 0.3 -0.3
v -0.2 0.3 -0.3
v -0.1 0.3 -0.3
v 0.2 0.3 -0.3
v 0.3 0.3 -0.3
v -0.3 0.3 -0.4
v -0.1 0.3 -0.4
v -0.3 0.5 0.3
v -0.1 0.5 0.3
v 0.2 0.5 0.3
v -0.2 0.5 0.2
v -0.1 0.5 0.2
v 0.2 0.5 0.2
v -0.2 0.5 -0.2
v -0.1 0.5 -0.2
v 0.2 0.5 -0.2
v -0.3 0.5 -0.3
v -0.1 0.5 -0.3
v 0.2 0.5 -0.3
v 0.2 0.8 0.1
v 0.3 0.8 0.1
v 0.2 0.8 -0.1
v 0.3 0.8 -0.1
v -0.1 1 0.3
v 0 1 0.3
v -0.2 1 0.2
v -0.1 1 0.2
v 0 1 0.2
v 0.2 1 0.2
v -0.1 1 0.1
v 0.2 1 0.1
v -0.1 1 -0.1
v 0.2 1 -0.1
v -0.2 1 -0.2
v -0.1 1 -0.2
v 0 1 -0.2
v 0.2 1 -0.2
v -0.1 1 -0.3
v 0 1 -0.3

# faces
f 3/4/1 2/4/1 1/4/1
f 4/4/1 2/4/1 3/4/1
f 11/3/1 7/3/1 6/3/1
f 12/3/1 9/3/1 8/3/1
f 13/4/1 6/4/1 5/4/1
f 14/3/1 12/3/1 11/3/1
f 14/4/1 6/4/1 13/4/1
f 14/3/1 11/3/1 6/3/1
f 15/4/1 10/4/1 9/4/1
f 15/3/1 12/3/1 14/3/1
f 15/3/1 9/3/1 12/3/1
f 16/4/1 10/4/1 15/4/1
f 17/3/1 15/3/1 14/3/1
f 18/3/1 15/3/1 17/3/1
f 21/3/1 20/3/1 19/3/1
f 22/3/1 20/3/1 21/3/1
f 27/3/1 24/3/1 23/3/1
f 28/3/1 24/3/1 27/3/1
f 29/3/1 26/3/1 25/3/1
f 30/3/1 26/3/1 29/3/1
f 31/4/2 32/4/2 33/4/2
f 33/4/2 32/4/2 34/4/2
f 35/4/2 36/4/2 39/4/2
f 39/4/2 36/4/2 40/4/2
f 37/4/2 38/4/2 41/4/2
f 41/4/2 38/4/2 42/4/2
f 43/3/2 44/3/2 47/3/2
f 47/3/2 44/3/2 48/3/2
f 45/3/2 46/3/2 49/3/2
f 49/3/2 46/3/2 50/3/2
f 51/3/2 52/3/2 55/3/2
f 55/3/2 52/3/2 56/3/2
f 53/3/2 54/3/2 57/3/2
f 57/3/2 54/3/2 58/3/2
f 59/3/2 60/3/2 63/3/2
f 63/3/2 60/3/2 64/3/2
f 61/3/2 62/3/2 65/3/2
f 65/3/2 62/3/2 66/3/2
f 67/4/2 68/4/2 70/4/2
f 70/4/2 68/4/2 71/4/2
f 69/4/2 70/4/2 73/4/2
f 71/4/2 72/4/2 73/4/2
f 70/4/2 71/4/2 73/4/2
f 73/4/2 72/4/2 74/4/2
f 74/4/2 72/4/2 75/4/2
f 75/4/2 72/4/2 76/4/2
f 74/4/2 75/4/2 77/4/2
f 77/4/2 75/4/2 78/4/2
f 74/4/2 77/4/2 79/4/2
f 79/4/2 77/4/2 80/4/2
f 78/4/2 75/4/2 81/4/2
f 81/4/2 75/4/2 82/4/2
f 79/6/2 80/6/2 83/6/2
f 83/6/2 80/6/2 84/6/2
f 81/6/2 82/6/2 85/6/2
f 85/6/2 82/6/2 86/6/2
f 83/2/2 84/2/2 87/2/2
f 84/4/2 85/4/2 88/4/2
f 87/2/2 84/2/2 88/2/2
f 85/2/2 86/2/2 89/2/2
f 88/4/2 85/4/2 89/4/2
f 89/2/2 86/2/2 90/2/2
f 87/3/2 88/3/2 91/3/2
f 88/4/2 89/4/2 92/4/2
f 91/3/2 88/3/2 92/3/2
f 89/3/2 90/3/2 93/3/2
f 92/4/2 89/4/2 93/4/2
f 93/3/2 90/3/2 94/3/2
f 95/3/2 96/3/2 99/3/2
f 99/3/2 96/3/2 100/3/2
f 97/3/2 98/3/2 101/3/2
f 101/3/2 98/3/2 102/3/2
f 103/4/2 104/4/2 105/4/2
f 105/4/2 104/4/2 106/4/2
f 105/5/2 106/5/2 107/5/2
f 107/5/2 106/5/2 108/5/2
f 109/3/2 110/3/2 113/3/2
f 113/3/2 110/3/2 114/3/2
f 111/3/2 112/3/2 115/3/2
f 115/3/2 112/3/2 116/3/2
f 119/4/3 118/4/3 117/4/3
f 120/4/3 118/4/3 119/4/3
f 121/4/3 118/4/3 120/4/3
f 122/3/3 120/3/3 119/3/3
f 123/3/3 120/3/3 122/3/3
f 124/3/3 122/3/3 119/3/3
f 125/3/3 122/3/3 124/3/3
f 128/3/3 127/3/3 126/3/3
f 129/3/3 127/3/3 128/3/3
f 131/4/3 129/4/3 128/4/3
f 132/3/3 127/3/3 129/3/3
f 132/4/3 129/4/3 131/4/3
f 133/3/3 127/3/3 132/3/3
f 137/4/3 131/4/3 130/4/3
f 137/4/3 132/4/3 131/4/3
f 137/4/3 133/4/3 132/4/3
f 138/3/3 135/3/3 134/3/3
f 139/3/3 135/3/3 138/3/3
f 141/4/3 137/4/3 136/4/3
f 142/4/3 141/4/3 140/4/3
f 143/4/3 133/4/3 137/4/3
f 143/4/3 141/4/3 142/4/3
f 143/4/3 137/4/3 141/4/3
f 144/4/3 133/4/3 143/4/3
f 145/3/3 143/3/3 142/3/3
f 146/3/3 143/3/3 145/3/3
f 147/3/3 145/3/3 142/3/3
f 148/3/3 145/3/3 147/3/3
f 151/3/3 150/3/3 149/3/3
f 152/3/3 150/3/3 151/3/3
f 153/3/3 150/3/3 152/3/3
f 154/4/3 152/4/3 151/4/3
f 155/4/3 152/4/3 154/4/3
f 157/4/3 154/4/3 151/4/3
f 157/3/3 156/3/3 155/3/3
f 157/3/3 155/3/3 154/3/3
f 158/3/3 156/3/3 157/3/3
f 159/3/3 156/3/3 158/3/3
f 160/4/3 157/4/3 151/4/3
f 161/6/3 158/6/3 157/6/3
f 161/4/3 157/4/3 160/4/3
f 162/2/3 159/2/3 158/2/3
f 162/6/3 158/6/3 161/6/3
f 163/3/3 156/3/3 159/3/3
f 163/2/3 159/2/3 162/2/3
f 164/3/3 156/3/3 163/3/3
f 167/4/3 166/4/3 165/4/3
f 168/4/3 166/4/3 167/4/3
f 169/4/3 167/4/3 165/4/3
f 170/4/3 167/4/3 169/4/3
f 174/4/3 172/4/3 171/4/3
f 175/5/3 173/5/3 172/5/3
f 175/4/3 172/4/3 174/4/3
f 176/5/3 173/5/3 175/5/3
f 179/3/3 178/3/3 177/3/3
f 180/3/3 178/3/3 179/3/3
f 181/3/3 179/3/3 177/3/3
f 182/3/3 179/3/3 181/3/3
f 183/3/4 184/3/4 185/3/4
f 185/3/4 184/3/4 186/3/4
f 183/3/4 185/3/4 187/3/4
f 187/3/4 185/3/4 188/3/4
f 189/4/4 190/4/4 191/4/4
f 191/4/4 190/4/4 192/4/4
f 189/4/4 191/4/4 193/4/4
f 193/4/4 191/4/4 194/4/4
f 195/4/4 196/4/4 198/4/4
f 196/5/4 197/5/4 199/5/4
f 198/4/4 196/4/4 199/4/4
f 199/5/4 197/5/4 200/5/4
f 201/3/4 202/3/4 203/3/4
f 203/3/4 202/3/4 204/3/4
f 204/3/4 202/3/4 205/3/4
f 203/4/4 204/4/4 206/4/4
f 206/4/4 204/4/4 207/4/4
f 203/4/4 206/4/4 209/4/4
f 207/3/4 208/3/4 209/3/4
f 206/3/4 207/3/4 209/3/4
f 209/3/4 208/3/4 210/3/4
f 210/3/4 208/3/4 211/3/4
f 203/4/4 209/4/4 212/4/4
f 209/6/4 210/6/4 213/6/4
f 212/4/4 209/4/4 213/4/4
f 210/2/4 211/2/4 214/2/4
f 213/6/4 210/6/4 214/6/4
f 211/3/4 208/3/4 215/3/4
f 214/2/4 211/2/4 215/2/4
f 215/3/4 208/3/4 216/3/4
f 217/3/4 218/3/4 219/3/4
f 219/3/4 218/3/4 220/3/4
f 219/4/4 220/4/4 222/4/4
f 220/3/4 218/3/4 223/3/4
f 222/4/4 220/4/4 223/4/4
f 223/3/4 218/3/4 224/3/4
f 221/4/4 222/4/4 228/4/4
f 222/4/4 223/4/4 228/4/4
f 223/4/4 224/4/4 228/4/4
f 225/3/4 226/3/4 229/3/4
f 229/3/4 226/3/4 230/3/4
f 227/4/4 228/4/4 232/4/4
f 231/4/4 232/4/4 233/4/4
f 228/4/4 224/4/4 234/4/4
f 233/4/4 232/4/4 234/4/4
f 232/4/4 228/4/4 234/4/4
f 234/4/4 224/4/4 235/4/4
f 233/3/4 234/3/4 236/3/4
f 236/3/4 234/3/4 237/3/4
f 233/3/4 236/3/4 238/3/4
f 238/3/4 236/3/4 239/3/4
f 240/4/4 241/4/4 242/4/4
f 242/4/4 241/4/4 243/4/4
f 243/4/4 241/4/4 244/4/4
f 242/3/4 243/3/4 245/3/4
f 245/3/4 243/3/4 246/3/4
f 242/3/4 245/3/4 247/3/4
f 247/3/4 245/3/4 248/3/4
f 252/4/5 250/4/5 249/4/5
f 253/4/5 250/4/5 252/4/5
f 254/3/5 251/3/5 250/3/5
f 254/4/5 250/4/5 253/4/5
f 255/3/5 251/3/5 254/3/5
f 259/3/5 253/3/5 252/3/5
f 260/4/5 254/4/5 253/4/5
f 260/4/5 255/4/5 254/4/5
f 260/3/5 253/3/5 259/3/5
f 260/4/5 256/4/5 255/4/5
f 261/3/5 257/3/5 256/3/5
f 261/4/5 256/4/5 260/4/5
f 262/3/5 257/3/5 261/3/5
f 263/4/5 260/4/5 259/4/5
f 263/4/5 259/4/5 258/4/5
f 263/4/5 261/4/5 260/4/5
f 264/4/5 261/4/5 263/4/5
f 265/4/5 261/4/5 264/4/5
f 266/4/5 261/4/5 265/4/5
f 268/3/5 265/3/5 264/3/5
f 269/4/5 266/4/5 265/4/5
f 269/3/5 265/3/5 268/3/5
f 270/4/5 266/4/5 269/4/5
f 271/4/5 266/4/5 270/4/5
f 272/3/5 267/3/5 266/3/5
f 272/4/5 266/4/5 271/4/5
f 273/3/5 267/3/5 272/3/5
f 274/4/5 269/4/5 268/4/5
f 274/4/5 270/4/5 269/4/5
f 275/3/5 271/3/5 270/3/5
f 275/4/5 270/4/5 274/4/5
f 276/3/5 271/3/5 275/3/5
f 279/4/5 278/4/5 277/4/5
f 280/4/5 278/4/5 279/4/5
f 283/3/5 282/3/5 281/3/5
f 284/3/5 282/3/5 283/3/5
f 287/3/5 286/3/5 285/3/5
f 288/3/5 286/3/5 287/3/5
f 289/3/6 290/3/6 291/3/6
f 291/3/6 290/3/6 292/3/6
f 293/3/6 294/3/6 297/3/6
f 297/3/6 294/3/6 298/3/6
f 295/4/6 296/4/6 299/4/6
f 299/4/6 296/4/6 300/4/6
f 301/3/6 302/3/6 305/3/6
f 305/3/6 302/3/6 306/3/6
f 303/3/6 304/3/6 307/3/6
f 307/3/6 304/3/6 308/3/6
f 309/3/6 310/3/6 311/3/6
f 311/3/6 310/3/6 312/3/6
f 313/4/6 314/4/6 315/4/6
f 315/4/6 314/4/6 316/4/6
f 317/3/6 318/3/6 319/3/6
f 319/3/6 318/3/6 320/3/6
f 321/4/6 322/4/6 323/4/6
f 323/4/6 322/4/6 324/4/6
f 324/4/6 322/4/6 325/4/6
f 326/3/6 327/3/6 328/3/6
f 328/3/6 327/3/6 329/3/6
f 330/3/6 331/3/6 335/3/6
f 335/3/6 331/3/6 336/3/6
f 333/4/6 334/4/6 337/4/6
f 332/4/6 333/4/6 337/4/6
f 337/4/6 334/4/6 338/4/6
f 339/3/6 340/3/6 342/3/6
f 340/4/6 341/4/6 343/4/6
f 342/3/6 340/3/6 343/3/6
f 343/4/6 341/4/6 344/4/6
f 339/3/6 342/3/6 345/3/6
f 339/3/6 345/3/6 348/3/6
f 345/3/6 346/3/6 348/3/6
f 346/4/6 347/4/6 349/4/6
f 348/3/6 346/3/6 349/3/6
f 349/4/6 347/4/6 350/4/6
f 351/5/6 352/5/6 353/5/6
f 353/5/6 352/5/6 354/5/6
f 355/3/6 356/3/6 358/3/6
f 358/3/6 356/3/6 359/3/6
f 357/3/6 358/3/6 361/3/6
f 359/3/6 360/3/6 361/3/6
f 358/3/6 359/3/6 361/3/6
f 361/3/6 360/3/6 362/3/6
f 357/3/6 361/3/6 363/3/6
f 361/4/6 362/4/6 363/4/6
f 363/4/6 362/4/6 364/4/6
f 357/3/6 363/3/6 365/3/6
f 363/3/6 364/3/6 365/3/6
f 365/3/6 364/3/6 366/3/6
f 366/3/6 364/3/6 367/3/6
f 367/3/6 364/3/6 368/3/6
f 366/3/6 367/3/6 369/3/6
f 369/3/6 367/3/6 370/3/6
